<svg xmlns="http://www.w3.org/2000/svg" viewBox="0 0 1200 630" width="1200" height="630">
  <rect width="1200" height="630" fill="#060e1c"/>
  <rect width="1200" height="5" fill="url(#goldGrad)"/>

  <rect x="900" y="200" width="60" height="300" rx="6" fill="#b8934a" opacity="0.25"/>
  <rect x="980" y="140" width="60" height="360" rx="6" fill="#c9a55a" opacity="0.35"/>
  <rect x="1060" y="80"  width="60" height="420" rx="6" fill="#ddb860" opacity="0.45"/>
  <polyline points="930,190 1010,130 1090,70" stroke="#e8c06a" stroke-width="3" fill="none" stroke-linecap="round" stroke-linejoin="round" opacity="0.6"/>

  <rect x="80" y="180" width="4" height="140" rx="2" fill="url(#goldGrad)"/>

  <rect x="80" y="130" width="220" height="32" rx="6" fill="rgba(184,147,74,0.15)"/>
  <text x="190" y="151" font-family="DM Sans, sans-serif" font-size="13" fill="#b8934a" text-anchor="middle" letter-spacing="2">SIMULATION GRATUITE</text>

  <text x="108" y="230" font-family="Georgia, serif" font-size="52" font-weight="700" fill="#f1e4c3" letter-spacing="-0.5">Simulateurs</text>
  <text x="108" y="295" font-family="Georgia, serif" font-size="52" font-weight="700" fill="#e8c06a" letter-spacing="-0.5">Retraite 2026</text>

  <text x="108" y="355" font-family="DM Sans, sans-serif" font-size="22" fill="#94a3b8">Agirc-Arrco, CNAV, fonction publique, indépendants…</text>

  <line x1="80" y1="400" x2="600" y2="400" stroke="rgba(184,147,74,0.3)" stroke-width="1"/>

  <rect x="80"  y="420" width="185" height="38" rx="8" fill="rgba(184,147,74,0.12)"/>
  <text x="172" y="443" font-family="DM Sans, sans-serif" font-size="15" fill="#e8c06a" text-anchor="middle">✓ Données officielles</text>
  <rect x="278" y="420" width="175" height="38" rx="8" fill="rgba(184,147,74,0.12)"/>
  <text x="365" y="443" font-family="DM Sans, sans-serif" font-size="15" fill="#e8c06a" text-anchor="middle">✓ 100 % gratuit</text>
  <rect x="466" y="420" width="200" height="38" rx="8" fill="rgba(184,147,74,0.12)"/>
  <text x="566" y="443" font-family="DM Sans, sans-serif" font-size="15" fill="#e8c06a" text-anchor="middle">✓ Calcul local</text>

  <g transform="translate(80,520)">
    <rect width="40" height="40" rx="9" fill="#163a6e"/>
    <g fill="#f5c01f">
      <rect x="7.8"  y="24.4" width="5" height="7.5"  rx="1.3"/>
      <rect x="14.7" y="20.6" width="5" height="11.3" rx="1.3"/>
      <rect x="21.6" y="16.3" width="5" height="15.6" rx="1.3"/>
      <rect x="28.4" y="11.9" width="5" height="20"   rx="1.3"/>
    </g>
    <path d="M6.9 28.1 C 15 26.3, 20.6 17.5, 32.8 10.3" fill="none" stroke="#ffffff" stroke-width="1.9" stroke-linecap="round" stroke-linejoin="round"/>
  </g>
  <text x="132" y="546" font-family="DM Sans, sans-serif" font-size="20" font-weight="600" fill="#94a3b8" letter-spacing="1">mesimulateurs.fr</text>

  <defs>
    <linearGradient id="goldGrad" x1="0%" y1="0%" x2="100%" y2="0%">
      <stop offset="0%"   stop-color="#b8934a"/>
      <stop offset="100%" stop-color="#e8c06a"/>
    </linearGradient>
  </defs>
</svg>
